<svg width="1580" height="1580" viewBox="0 0 1580 1580" fill="none" xmlns="http://www.w3.org/2000/svg">
<rect width="1580" height="1580" fill="#061235"/>
<path fill-rule="evenodd" clip-rule="evenodd" d="M876.167 1085.74C867.754 1204.56 702.646 1280.14 561.024 1197.71C419.402 1115.28 432.476 934.086 615.251 885.111C708.258 860.19 819.186 916.333 876.349 973.496C933.513 1030.66 951.318 1077.11 1027.98 985.422C1207.45 1030.4 1122.77 1208.21 1017.91 1180.11C945.474 1160.7 930.965 1099.46 860.856 1029.35C790.747 959.244 721.367 920.273 638.108 939.08C554.849 957.887 600.654 1037.05 653.358 1065.08C706.062 1093.12 787.041 1111.9 876.167 1085.74Z" fill="#D4FFAF"/>
<path fill-rule="evenodd" clip-rule="evenodd" d="M1002.68 567.304C1109.78 515.183 1257.79 620.382 1257.22 784.244C1256.64 948.106 1093.19 1027.38 959.385 893.58C891.3 825.495 884.457 701.357 905.38 623.27C926.303 545.184 957.624 506.54 839.894 485.996C789.106 308.074 985.436 292.506 1013.53 397.367C1032.94 469.804 987.161 512.988 961.5 608.759C935.838 704.53 936.779 784.101 994.695 846.801C1052.61 909.502 1098.27 830.253 1096.19 770.593C1094.12 710.934 1069.89 631.413 1002.68 567.304Z" fill="#D4FFAF"/>
<path fill-rule="evenodd" clip-rule="evenodd" d="M490.435 716.936C391.745 650.242 408.846 469.465 551.042 388.031C693.237 306.596 843.621 408.517 794.646 591.292C769.725 684.299 665.64 752.294 587.553 773.217C509.467 794.141 460.34 786.338 501.413 898.567C372.722 1031.51 261.075 869.269 337.839 792.505C390.866 739.478 451.156 757.533 546.926 731.871C642.697 706.21 711.137 665.61 736.479 584.102C761.821 502.595 670.362 502.681 619.733 534.308C569.104 565.934 512.349 626.674 490.435 716.936Z" fill="#D4FFAF"/>
</svg>
